<svg width="18" height="16" viewBox="0 0 18 16" fill="none" xmlns="http://www.w3.org/2000/svg">
<path d="M9.50004 1.97043L11.3334 5.32169C11.4167 5.47402 11.5834 5.62635 11.8334 5.62635L15.9167 6.1595C16.4167 6.23567 16.5834 6.76882 16.25 7.07348L13.25 9.66309C13.0834 9.81541 13 9.96774 13.0834 10.1201L13.75 13.8522C13.8334 14.3091 13.3334 14.69 12.8334 14.4615L9.16671 12.7097C9.00004 12.6335 8.75004 12.6335 8.58337 12.7097L4.91671 14.4615C4.50004 14.69 3.91671 14.3091 4.00004 13.8522L4.83337 10.2724C4.83337 10.1201 4.83337 9.89158 4.66671 9.81541L1.66671 7.22581C1.33337 6.84498 1.50004 6.23567 2.00004 6.1595L6.08337 5.62635C6.25004 5.62635 6.41671 5.47402 6.58337 5.32169L8.41671 1.97043C8.66671 1.58961 9.33337 1.58961 9.50004 1.97043Z" stroke="#CCCCCC" stroke-width="2" stroke-miterlimit="10"/>
</svg>
